<mxfile host="app.diagrams.net" modified="2023-12-27T04:14:24.761Z" agent="Mozilla/5.0 (Windows NT 10.0; Win64; x64) AppleWebKit/537.36 (KHTML, like Gecko) Chrome/120.0.0.0 Whale/3.24.223.12 Safari/537.36" version="22.1.12" etag="WBwikk3s9vrrw-hpznXg" type="github">
  <diagram name="페이지-1" id="seokVC07ezWAuY_Ziaa7">
    <mxGraphModel>
      <root>
        <mxCell id="0" />
        <mxCell id="1" parent="0" />
      </root>
    </mxGraphModel>
  </diagram>
</mxfile>
